<svg xmlns="http://www.w3.org/2000/svg" version="1.1" xmlns:xlink="http://www.w3.org/1999/xlink" xmlns:svgjs="http://svgjs.dev/svgjs" width="1000" height="1000" viewBox="0 0 1000 1000"><rect width="1000" height="1000" fill="#000000"></rect><g transform="matrix(0.7,0,0,0.7,150.1899040970073,181.40865489451227)"><svg viewBox="0 0 271 247" data-background-color="#ffffff" preserveAspectRatio="xMidYMid meet" height="911" width="1000" xmlns="http://www.w3.org/2000/svg" xmlns:xlink="http://www.w3.org/1999/xlink"><g id="tight-bounds" transform="matrix(1,0,0,1,-0.07352001469854486,-0.09997365579206985)"><svg viewBox="0 0 271.1469031154156 247.2" height="247.2" width="271.1469031154156"><g><svg viewBox="0 0 271.1469031154156 247.2" height="247.2" width="271.1469031154156"><g><svg viewBox="0 0 271.1469031154156 247.2" height="247.2" width="271.1469031154156"><g><svg viewBox="0 0 271.1469031154156 247.2" height="247.2" width="271.1469031154156"><g><svg viewBox="0 0 271.1469031154156 247.2" height="247.2" width="271.1469031154156"><path d="M270.512 53.02C269.237 27.36 265.604 20.227 265.604 20.227 254.451-6.202 240.531-0.506 228.026 3.292 205.948 3.446 183.959 9.091 161.931 12.119 115.697 12.581 69.068 4.986 23.063 23.717 18.742 29.464-4.483 24.846 0.769 56.304 2.145 69.39 7.168 83.913 7.015 95.922 7.703 98.026 8.659 93.202 9.067 96.23 10.495 104.39 12.827 100.541 14.74 105.365 12.075 118.246 13.987 128.971 15.81 140.21 12.598 143.135 8.481 141.749 6.632 151.449 6.441 158.479 5.409 157.145 4.274 156.837 3.446 156.632 1.776 157.402 2.056 159.608 3.012 167.152-1.092 171.514 1.482 178.904-0.289 186.91 2.706 193.838 2.298 202.511 2.247 204.255 2.528 205.744 2.974 206.154 4.95 208.361 2.069 212.672 2.375 217.342 22.643 249.262 44.632 227.195 65.397 241.872 70.789 231.608 66.735 245.516 68.89 243.36 70.572 240.846 71.796 251.263 73.695 245.362 73.989 243.668 73.542 239.665 74.588 240.435 75.136 240.846 75.62 240.743 75.697 238.382 75.811 234.841 74.804 237.048 74.537 235.201 77.43 225.861 76.716 248.081 79.432 247.158 79.304 244.438 78.514 240.538 80.133 241.051 81.739 237.151 81.79 233.918 83.218 242.693 83.269 244.592 83.523 245.926 83.931 246.85 88.393 237.305 92.829 250.237 97.507 245.926 100.375 241.205 103.129 248.492 106.035 246.696 107.055 245.259 108.087 242.693 109.069 247.004 121.089 247.928 133.9 244.079 145.296 247.158 175.749 241.41 208.293 249.518 240.403 241.923 247.975 238.998 255.84 234.841 263.221 231.506 263.221 231.506 269.199 222.371 269.199 181.316S270.474 145.393 270.665 112.703C270.856 80.013 271.749 78.679 270.474 53.02Z" opacity="1" fill="#ee3e38" data-fill-palette-color="tertiary"></path><g transform="matrix(1,0,0,1,55.76831999999999,26.230666666666668)"><svg width="159.61026311541565" viewBox="3.6500000953674316 -40.29999923706055 33.849998474121094 41.29999923706055" height="194.73866666666666" data-palette-color="#ffffff"><path d="M24.9-40.3Q27.45-40.3 30.88-39.55 34.3-38.8 35.85-37.95L35.85-37.95 35.85-28.45 34.5-28.45Q29.8-36.4 22-36.4L22-36.4Q18.55-36.4 15.75-34.43 12.95-32.45 11.35-28.98 9.75-25.5 9.75-21.15L9.75-21.15Q9.75-16.15 11.3-11.98 12.85-7.8 16.07-5.3 19.3-2.8 24.05-2.8L24.05-2.8Q28.2-2.8 36.1-9.5L36.1-9.5 37.5-7.25 28.3-0.1Q26.5 0.55 24.83 0.78 23.15 1 21.25 1L21.25 1Q16.1 1 12.1-1.55 8.1-4.1 5.88-8.58 3.65-13.05 3.65-18.75L3.65-18.75Q3.65-24.6 7-29.58 10.35-34.55 15.35-37.43 20.35-40.3 24.9-40.3L24.9-40.3Z" opacity="1" transform="matrix(1,0,0,1,0,0)" fill="#ffffff" class="undefined-text-0" data-fill-palette-color="quaternary" id="text-0"></path></svg></g></svg></g></svg></g></svg></g><g></g></svg></g><defs></defs></svg><rect width="271.1469031154156" height="247.2" fill="none" stroke="none" visibility="hidden"></rect></g></svg></g></svg>